<?xml version="1.0" encoding="UTF-8"?>
<!DOCTYPE svg PUBLIC "-//W3C//DTD SVG 1.0//EN" "http://www.w3.org/TR/2001/REC-SVG-20010904/DTD/svg10.dtd">
<!-- Creator: CorelDRAW X8 -->
<svg xmlns="http://www.w3.org/2000/svg" xml:space="preserve" width="64px" height="45px" version="1.0" shape-rendering="geometricPrecision" text-rendering="geometricPrecision" image-rendering="optimizeQuality" fill-rule="evenodd" clip-rule="evenodd"
viewBox="0 0 64 45"
 xmlns:xlink="http://www.w3.org/1999/xlink">
 <g id="Camada_x0020_1">
  <metadata id="CorelCorpID_0Corel-Layer"/>
  <g id="_3089283777120">
   <g>
    <path fill="#6B809B" stroke="#6B809B" stroke-width="0.900011" d="M8 26c1,-1 1,-1 1,-1 0,-1 1,-1 0,-2l0 0c0,-4 3,-7 7,-7 0,0 1,0 1,0 0,-1 1,-1 1,-1l0 -1c1,-5 6,-10 12,-10 7,0 13,6 13,13 0,0 0,1 0,2 -1,0 0,0 0,0l0 1c0,0 0,0 0,1 1,0 1,0 1,0 1,0 1,0 1,0l1 0c1,-1 2,-1 4,-1 5,0 10,4 10,9 0,6 -5,10 -10,10 -2,0 -4,-1 -5,-2 -1,0 -1,0 -2,0 0,0 0,0 -1,0 -1,1 -2,1 -2,2 -4,1 -8,2 -12,2 -4,0 -9,-1 -12,-2 -1,-1 -2,-1 -2,-1 0,0 0,0 -1,0 0,0 0,0 -1,0 0,0 -1,0 -1,0 -4,0 -7,-3 -7,-7 0,-2 2,-4 4,-5l0 0zm3 16c0,0 1,0 2,0 0,0 1,1 1,1 4,1 10,2 14,2 5,0 9,-1 13,-2 1,-1 2,-1 2,-1 2,1 5,1 7,1 8,0 14,-6 14,-14 0,-7 -6,-14 -14,-14 -1,0 -2,0 -3,1 -1,-9 -8,-16 -17,-16 -7,0 -14,5 -16,12 -5,1 -9,5 -9,10 -3,2 -5,6 -5,9 0,6 5,11 11,11z"/>
    <path fill="#E6E7E8" d="M9 25c0,0 0,0 -1,1l0 0c-2,1 -4,3 -4,5 0,4 3,7 7,7 0,0 1,0 1,0 1,0 1,0 1,0 1,0 1,0 1,0 0,0 1,0 2,1 3,1 8,2 12,2 4,0 8,-1 12,-2 0,-1 1,-1 2,-2 1,0 1,0 1,0 1,0 1,0 2,0 1,1 3,2 5,2 5,0 10,-4 10,-10 0,-5 -5,-9 -10,-9 -2,0 -3,0 -4,1l-1 0c0,0 0,0 -1,0 0,0 0,0 -1,0 0,-1 0,-1 0,-1l0 -1c0,0 -1,0 0,0 0,-1 0,-2 0,-2 0,-7 -6,-13 -13,-13 -6,0 -11,5 -12,10l0 1c0,0 -1,0 -1,1 0,0 -1,0 -1,0 -4,0 -7,3 -7,7l0 0c1,1 0,1 0,2z"/>
   </g>
   <path fill="#FEFEFE" d="M32 7c0,-1 0,-1 1,0 1,0 3,1 5,2 1,1 2,2 2,4 1,1 1,3 1,4 -1,1 -1,1 -1,1 -1,0 -1,1 -1,1 0,0 -1,0 -1,-1 -1,0 -1,0 -1,-1 0,-1 0,-3 0,-4 0,-2 -1,-3 -2,-4 -1,-1 -2,-2 -2,-2 0,0 -1,0 -1,0z"/>
  </g>
 </g>
</svg>
