<?xml version="1.0" encoding="UTF-8"?>
<!DOCTYPE svg PUBLIC "-//W3C//DTD SVG 1.0//EN" "http://www.w3.org/TR/2001/REC-SVG-20010904/DTD/svg10.dtd">
<!-- Creator: CorelDRAW X8 -->
<svg xmlns="http://www.w3.org/2000/svg" xml:space="preserve" width="100%" height="100%" version="1.0" style="shape-rendering:geometricPrecision; text-rendering:geometricPrecision; image-rendering:optimizeQuality; fill-rule:evenodd; clip-rule:evenodd"
viewBox="0 0 16 16"
 xmlns:xlink="http://www.w3.org/1999/xlink">
 <defs>
  <style type="text/css">
   <![CDATA[
    .fil0 {fill:#FEFEFE}
    .fil1 {fill:#373435}
   ]]>
  </style>
 </defs>
 <g id="Camada_x0020_1">
  <metadata id="CorelCorpID_0Corel-Layer"/>
  <g id="_2130109175632">
   <path class="fil0" d="M12 4c0,2 -2,4 -4,4 -2,0 -4,2 -4,4 0,2 2,4 4,4 4,0 8,-4 8,-8 0,-3 -2,-6 -5,-7 1,0 1,2 1,3zm-3 8c0,1 0,1 -1,1 -1,0 -1,0 -1,-1 0,0 0,-1 1,-1 1,0 1,1 1,1z"/>
   <circle class="fil0" cx="8" cy="4" r="1"/>
   <circle class="fil1" cx="8" cy="12" r="1"/>
   <path class="fil1" d="M4 12c0,-2 2,-4 4,-4 2,0 4,-2 4,-4 0,-2 -2,-4 -4,-4 -4,0 -8,4 -8,8 0,3 2,6 5,7 -1,0 -1,-2 -1,-3zm3 -8c0,-1 0,-1 1,-1 1,0 1,0 1,1 0,0 0,1 -1,1 -1,0 -1,-1 -1,-1z"/>
   <rect class="fil0" x="8" width="0.459804" height="1.47138"/>
   <rect class="fil1" transform="matrix(1.27327E-15 -0.0169371 0.0244255 2.7317E-17 14.3441 8.2299)" width="27.1478" height="60.2392" rx="14" ry="14"/>
   <rect class="fil0" transform="matrix(-2.17041E-15 0.0169371 -0.0244255 -1.32112E-15 1.65354 7.7701)" width="27.1478" height="60.2392" rx="14" ry="14"/>
   <rect class="fil1" x="8" y="14" width="0.459804" height="1.47138"/>
   <rect class="fil1" transform="matrix(0.0146679 -0.00846855 0.00610638 0.0105766 11.3402 14.2473)" width="27.1478" height="60.2392" rx="14" ry="14"/>
   <rect class="fil1" transform="matrix(0.00846853 -0.014668 0.0105766 0.00610639 14.0162 11.7396)" width="27.1478" height="60.2392" rx="14" ry="14"/>
   <rect class="fil1" transform="matrix(-0.00846853 -0.014668 0.0105766 -0.00610639 14.2461 4.65862)" width="27.1478" height="60.2392" rx="14" ry="14"/>
   <rect class="fil1" transform="matrix(-0.0146679 -0.00846855 0.00610638 -0.0105766 11.7384 1.98264)" width="27.1478" height="60.2392" rx="14" ry="14"/>
   <g>
    <rect class="fil1" transform="matrix(0.00340179 -0.0173247 0.0203024 0.00398649 7.50292 8.23454)" width="41.669" height="266.681" rx="21" ry="21"/>
    <rect class="fil0" transform="matrix(-0.0140996 0.0106264 -0.00830183 -0.0110153 8.42385 7.99655)" width="41.669" height="266.681" rx="21" ry="21"/>
   </g>
  </g>
 </g>
</svg>
