<?xml version="1.0" encoding="UTF-8"?>
<!DOCTYPE svg PUBLIC "-//W3C//DTD SVG 1.0//EN" "http://www.w3.org/TR/2001/REC-SVG-20010904/DTD/svg10.dtd">
<!-- Creator: CorelDRAW X8 -->
<?xml-stylesheet href="FaviconB.css" type="text/css"?>
<svg xmlns="http://www.w3.org/2000/svg" xml:space="preserve" width="177px" height="124px" version="1.0" style="shape-rendering:geometricPrecision; text-rendering:geometricPrecision; image-rendering:optimizeQuality; fill-rule:evenodd; clip-rule:evenodd"
viewBox="0 0 177 124"
 xmlns:xlink="http://www.w3.org/1999/xlink">
 <g id="Camada_x0020_1">
  <metadata id="CorelCorpID_0Corel-Layer"/>
  <g id="_3089278245392">
   <g>
    <path class="fil0 str0" d="M23 70c1,0 2,-1 3,-2 0,-1 0,-3 0,-4l0 -2c0,-10 8,-18 18,-18 1,0 3,0 4,-1 0,-1 1,-2 1,-3l0 -1c4,-16 18,-27 34,-27 19,0 35,15 35,35 0,1 0,2 0,4 0,1 0,1 0,2l0 1c1,1 1,2 2,3 1,0 2,0 3,1 1,0 1,0 2,-1l1 0c4,-2 8,-3 12,-3 15,0 27,12 27,27 0,15 -12,27 -27,27 -5,0 -10,-2 -15,-5 -1,-1 -2,-1 -3,-1 -1,0 -2,0 -3,1 -3,1 -5,2 -7,3 -10,5 -21,6 -32,6 -11,0 -25,-2 -35,-5 -1,-1 -3,-2 -4,-2 -1,-1 -2,-1 -2,-1 -1,0 -2,0 -3,0 -1,0 -3,1 -4,1 -10,0 -18,-8 -18,-18 0,-7 4,-14 11,-17l0 0zm7 47c2,0 3,-1 5,-1 1,1 3,1 4,2 11,4 27,6 39,6 12,0 25,-2 36,-7 2,0 4,-1 6,-2 5,3 12,5 18,5 22,0 39,-18 39,-39 0,-21 -17,-39 -39,-39 -3,0 -5,1 -8,1 -2,-24 -22,-43 -47,-43 -20,0 -38,13 -44,33 -14,2 -25,14 -25,28 -9,6 -14,15 -14,26 0,16 13,30 30,30z"/>
    <path class="fil1" d="M26 68c-1,1 -2,2 -3,2l0 0c-7,3 -11,10 -11,17 0,10 8,18 18,18 1,0 3,-1 4,-1 1,0 2,0 3,0 0,0 1,0 2,1 1,0 3,1 4,2 10,3 24,5 35,5 11,0 22,-1 32,-6 2,-1 4,-2 7,-3 1,-1 2,-1 3,-1 1,0 2,0 3,1 5,3 10,5 15,5 15,0 27,-12 27,-27 0,-15 -12,-27 -27,-27 -4,0 -8,1 -12,3l-1 0c-1,1 -1,1 -2,1 -1,-1 -2,-1 -3,-1 -1,-1 -1,-2 -2,-3l0 -1c0,-1 0,-1 0,-2 0,-2 0,-3 0,-4 0,-20 -16,-35 -35,-35 -16,0 -30,11 -34,27l0 1c0,1 -1,2 -1,3 -1,1 -3,1 -4,1 -10,0 -18,8 -18,18l0 2c0,1 0,3 0,4z"/>
   </g>
   <path class="fil2" d="M89 18c0,-1 0,-1 3,0 3,1 8,3 12,6 4,3 6,7 7,11 2,4 2,9 1,12 0,3 -1,3 -2,4 -1,0 -2,0 -3,0 0,0 -1,0 -3,0 -1,-1 -2,-3 -2,-5 0,-3 1,-6 0,-11 -1,-4 -3,-8 -5,-11 -2,-3 -4,-4 -6,-5 -1,-1 -2,-1 -2,-1z"/>
  </g>
 </g>
</svg>
