<?xml version="1.0" encoding="UTF-8"?>
<!DOCTYPE svg PUBLIC "-//W3C//DTD SVG 1.1//EN" "http://www.w3.org/Graphics/SVG/1.1/DTD/svg11.dtd">
<!-- Creator: CorelDRAW X8 -->
<svg xmlns="http://www.w3.org/2000/svg" xml:space="preserve" width="90px" height="90px" version="1.1" style="shape-rendering:geometricPrecision; text-rendering:geometricPrecision; image-rendering:optimizeQuality; fill-rule:evenodd; clip-rule:evenodd"
viewBox="0 0 90 90"
 xmlns:xlink="http://www.w3.org/1999/xlink">
 <defs>
  <style type="text/css">
   <![CDATA[
    .fil0 {fill:#FEFEFE}
    .fil1 {fill:#373435}
   ]]>
  </style>
 </defs>
 <g id="Camada_x0020_1">
  <metadata id="CorelCorpID_0Corel-Layer"/>
  <g id="_2128404275952">
   <path class="fil0" d="M70 22c0,13 -11,25 -25,25 -12,0 -22,9 -22,21 0,12 10,22 22,22 25,0 45,-20 45,-45 0,-19 -12,-35 -29,-42 6,5 9,11 9,19zm-20 46c0,3 -2,5 -5,5 -3,0 -5,-2 -5,-5 0,-3 2,-5 5,-5 3,0 5,2 5,5z"/>
   <circle class="fil0" cx="45" cy="22" r="5"/>
   <circle class="fil1" cx="45" cy="68" r="5"/>
   <path class="fil1" d="M20 68c0,-13 11,-25 25,-25 12,0 22,-9 22,-21 0,-12 -10,-22 -22,-22 -25,0 -45,20 -45,45 0,19 12,35 29,42 -6,-5 -9,-11 -9,-19zm20 -46c0,-3 2,-5 5,-5 3,0 5,2 5,5 0,3 -2,5 -5,5 -3,0 -5,-2 -5,-5z"/>
   <rect class="fil0" x="44" y="1" width="2.58627" height="8.2761" rx="1" ry="2"/>
   <rect class="fil1" transform="matrix(7.16198E-15 -0.0952689 0.13739 1.53654E-16 80.6822 46.2979)" width="27.1472" height="60.2378" rx="14" ry="14"/>
   <rect class="fil0" transform="matrix(-1.22083E-14 0.0952689 -0.13739 -7.4311E-15 9.30124 43.7116)" width="27.1472" height="60.2378" rx="14" ry="14"/>
   <rect class="fil1" x="44" y="81" width="2.58627" height="8.2761" rx="1" ry="2"/>
   <rect class="fil1" transform="matrix(0.0825051 -0.0476344 0.0343475 0.0594918 63.7862 80.1441)" width="27.1472" height="60.2378" rx="14" ry="14"/>
   <rect class="fil1" transform="matrix(0.0476343 -0.0825053 0.0594917 0.0343476 78.8378 66.0391)" width="27.1472" height="60.2378" rx="14" ry="14"/>
   <rect class="fil1" transform="matrix(-0.0476343 -0.0825053 0.0594917 -0.0343476 80.1309 26.2104)" width="27.1472" height="60.2378" rx="14" ry="14"/>
   <rect class="fil1" transform="matrix(-0.0825051 -0.0476344 0.0343475 -0.0594918 66.0259 11.1587)" width="27.1472" height="60.2378" rx="14" ry="14"/>
   <g>
    <rect class="fil1" transform="matrix(0.0191346 -0.0974491 0.114198 0.0224234 42.2024 46.3239)" width="41.668" height="266.675" rx="21" ry="21"/>
    <rect class="fil0" transform="matrix(-0.0793081 0.0597718 -0.0466966 -0.0619597 47.3824 44.9853)" width="41.668" height="266.675" rx="21" ry="21"/>
   </g>
  </g>
 </g>
</svg>
